<svg xmlns="http://www.w3.org/2000/svg" width="24" height="24" viewBox="0 0 24 24"><path fill-rule="evenodd" d="M11.832 6.555a1 1 0 00-1.664-1.11l-4 6A1 1 0 007 13h4.132l-2.964 4.445a1 1 0 101.664 1.11l4-6A1 1 0 0013 11H8.869zM3 7a1 1 0 00-1 1v8a1 1 0 001 1h2a1 1 0 110 2H3a3 3 0 01-3-3V8a3 3 0 013-3h3.19a1 1 0 010 2zm11-1a1 1 0 011-1h2a3 3 0 013 3v8a3 3 0 01-3 3h-3.19a1 1 0 110-2H17a1 1 0 001-1V8a1 1 0 00-1-1h-2a1 1 0 01-1-1m9 4a1 1 0 011 1v2a1 1 0 11-2 0v-2a1 1 0 011-1" clip-rule="evenodd"/></svg>