<svg xmlns="http://www.w3.org/2000/svg" width="24" height="24" viewBox="0 0 24 24"><g fill="none"><g clip-path="url(#svgID0)"><path fill="#000" fill-rule="evenodd" d="M11.617.076a1 1 0 011.09.217l5.5 5.5a1 1 0 010 1.414L13.414 12l4.793 4.793a1 1 0 010 1.414l-5.5 5.5A1 1 0 0111 23v-8.586l-3.793 3.793a1 1 0 01-1.414-1.414L10.586 12 5.793 7.207a1 1 0 011.414-1.414L11 9.586V1a1 1 0 01.617-.924M13 14.414l3.086 3.086L13 20.586zm0-4.828V3.414L16.086 6.5z" clip-rule="evenodd"/></g><defs><clipPath id="svgID0"><path fill="#fff" d="M0 0h24v24H0z"/></clipPath></defs></g></svg>