<svg xmlns="http://www.w3.org/2000/svg" width="24" height="24" viewBox="0 0 24 24"><g fill="none"><g fill="#000" clip-path="url(#svgID0)"><path d="M20 18.6c-.4 0-.8-.2-.9-.6-.2-.5 0-1.1.5-1.3 1-.4 1.7-1.2 2.1-2.2s.4-2.1-.1-3.1C21 9.9 19.6 9 18 9h-1.3c-.5 0-.9-.3-1-.8-1-3.7-4.8-6-8.5-5s-6 4.8-5 8.5c.4 1.5 1.2 2.8 2.4 3.7.4.3.5 1 .2 1.4s-1 .5-1.4.2a9.15 9.15 0 01-3.1-4.8C-1 7.4 1.9 2.5 6.7 1.3 11.3.1 15.9 2.7 17.4 7h.6c2.4 0 4.5 1.4 5.5 3.6.6 1.5.7 3.1.1 4.6s-1.7 2.7-3.2 3.3c-.1.1-.3.1-.4.1"/><path d="M8 17c-.3 0-.5-.1-.7-.3-.1-.1-.2-.2-.2-.3-.1-.1-.1-.3-.1-.4s0-.3.1-.4.1-.2.2-.3c.4-.4 1-.4 1.4 0 .1.1.2.2.2.3.1.1.1.3.1.4s0 .3-.1.4-.1.2-.2.3c-.2.2-.4.3-.7.3m0 4c-.3 0-.5-.1-.7-.3S7 20.3 7 20s.1-.5.3-.7c.1-.1.2-.2.3-.2.4-.2.8-.1 1.1.2.2.2.3.4.3.7s-.1.5-.3.7-.4.3-.7.3m4-2c-.1 0-.3 0-.4-.1-.1 0-.2-.1-.3-.2-.2-.2-.3-.4-.3-.7 0-.1 0-.3.1-.4s.1-.2.2-.3c.4-.4 1-.4 1.4 0 .2.2.3.5.3.7 0 .3-.1.5-.3.7s-.4.3-.7.3m0 4c-.3 0-.5-.1-.7-.3s-.3-.4-.3-.7c0-.1 0-.3.1-.4s.1-.2.2-.3c.4-.4 1-.4 1.4 0 .1.1.2.2.2.3s.1.3.1.4c0 .3-.1.5-.3.7-.1.1-.2.2-.3.2s-.3.1-.4.1m4-6c-.3 0-.5-.1-.7-.3-.1-.1-.2-.2-.2-.3s-.1-.3-.1-.4 0-.3.1-.4.1-.2.2-.3c.4-.4 1-.4 1.4 0 .1.1.2.2.2.3s.1.3.1.4c0 .3-.1.5-.3.7s-.4.3-.7.3m0 4c-.3 0-.5-.1-.7-.3s-.3-.4-.3-.7.1-.5.3-.7.6-.3.9-.3c.1 0 .1 0 .2.1.1 0 .1 0 .2.1 0 0 .1.1.2.1.2.2.3.5.3.7 0 .3-.1.5-.3.7-.3.2-.5.3-.8.3"/></g><defs><clipPath id="svgID0"><path fill="#fff" d="M0 0h24v24H0z"/></clipPath></defs></g></svg>