<svg xmlns="http://www.w3.org/2000/svg" width="24" height="24" viewBox="0 0 24 24"><g fill="none"><g fill="#000" clip-path="url(#svgID0)"><path d="M19 17.9c-.5 0-.9-.3-1-.8s.2-1.1.8-1.2c2.2-.4 3.6-2.6 3.1-4.7-.4-1.9-2-3.2-3.9-3.2h-1.3c-.5 0-.9-.3-1-.8-1-3.7-4.8-6-8.5-5-1.8.5-3.3 1.6-4.2 3.2-1 1.7-1.3 3.5-.8 5.4s1.7 3.4 3.4 4.4c.5.2.7.8.4 1.3s-.9.7-1.4.4C2.4 15.7.9 13.7.2 11.3c-.6-2.3-.3-4.8 1-6.8C2.4 2.4 4.4 1 6.7.4c4.5-1.2 9.2 1.4 10.7 5.7h.6c2.8 0 5.3 2 5.9 4.8.7 3.2-1.4 6.4-4.7 7.1-.1-.1-.1-.1-.2-.1"/><path d="M11 24c-.2 0-.4-.1-.6-.2-.5-.3-.6-.9-.3-1.4l3-4.4H9c-.4 0-.7-.2-.9-.5s-.2-.7 0-1l4-6c.3-.5.9-.6 1.4-.3s.6.9.3 1.4l-3 4.4H15c.4 0 .7.2.9.5s.2.7 0 1l-4 6c-.3.3-.6.5-.9.5"/></g><defs><clipPath id="svgID0"><path fill="#fff" d="M0 0h24v24H0z"/></clipPath></defs></g></svg>