<svg xmlns="http://www.w3.org/2000/svg" width="24" height="24" viewBox="0 0 24 24"><g fill="none"><g fill="#000" fill-rule="evenodd" clip-path="url(#svgID0)" clip-rule="evenodd"><path d="M8 18a1 1 0 011 1v2a1 1 0 11-2 0v-2a1 1 0 011-1m0-6a1 1 0 011 1v2a1 1 0 11-2 0v-2a1 1 0 011-1m8 6a1 1 0 011 1v2a1 1 0 11-2 0v-2a1 1 0 011-1m0-6a1 1 0 011 1v2a1 1 0 11-2 0v-2a1 1 0 011-1m-4 8a1 1 0 011 1v2a1 1 0 11-2 0v-2a1 1 0 011-1m0-6a1 1 0 011 1v2a1 1 0 11-2 0v-2a1 1 0 011-1"/><path d="M8.082.047A9 9 0 0117.48 6h.522a6 6 0 012.4 11.496 1 1 0 11-.802-1.832A4 4 0 0017.999 8H16.74a1 1 0 01-.968-.75 7 7 0 10-11.148 7.219 1 1 0 01-1.248 1.562A9 9 0 018.082.047"/></g><defs><clipPath id="svgID0"><path fill="#fff" d="M0 0h24v24H0z"/></clipPath></defs></g></svg>